<svg width="48" height="48" viewBox="0 0 48 48" fill="none" xmlns="http://www.w3.org/2000/svg">
<path fill-rule="evenodd" clip-rule="evenodd" d="M31.326 7.54659C27.7805 5.96679 23.8193 5.57542 20.0331 6.43085C16.247 7.28627 12.8388 9.34266 10.3169 12.2933C7.79498 15.244 6.29442 18.9308 6.03902 22.804C5.78363 26.6771 6.78708 30.529 8.89973 33.7853C11.0124 37.0416 14.121 39.5277 17.762 40.8728C21.4031 42.218 25.3814 42.3502 29.1036 41.2496C32.8259 40.149 36.0927 37.8747 38.4168 34.7659C40.7409 31.657 41.9978 27.8801 42 23.9986V22.1597C42 21.0552 42.8954 20.1597 44 20.1597C45.1046 20.1597 46 21.0552 46 22.1597V23.9997C45.9973 28.7439 44.4611 33.3612 41.6205 37.1609C38.78 40.9606 34.7872 43.7403 30.2378 45.0855C25.6883 46.4306 20.826 46.2691 16.3758 44.625C11.9257 42.9809 8.12624 39.9423 5.54411 35.9624C2.96199 31.9825 1.73554 27.2746 2.04769 22.5408C2.35984 17.8069 4.19386 13.3008 7.27622 9.69443C10.3586 6.08808 14.5241 3.57471 19.1516 2.52919C23.7791 1.48367 28.6206 1.96201 32.954 3.89287C33.963 4.34243 34.4164 5.52479 33.9669 6.53373C33.5173 7.54268 32.335 7.99615 31.326 7.54659Z" fill="#7FB41E"/>
<path fill-rule="evenodd" clip-rule="evenodd" d="M45.4135 6.58508C46.1949 7.36574 46.1956 8.63207 45.4149 9.41351L25.4149 29.4335C25.0399 29.8089 24.5311 30.0199 24.0005 30.02C23.4699 30.0201 22.961 29.8094 22.5858 29.4342L16.5858 23.4342C15.8047 22.6532 15.8047 21.3868 16.5858 20.6058C17.3668 19.8247 18.6332 19.8247 19.4142 20.6058L23.9993 25.1909L42.5851 6.58649C43.3657 5.80505 44.6321 5.80442 45.4135 6.58508Z" fill="#7FB41E"/>
</svg>
