<svg width="32" height="44" viewBox="0 0 32 44" fill="none" xmlns="http://www.w3.org/2000/svg">
<path d="M3.39931 16.9279C3.39931 16.9279 5.19353 11.9867 17.1453 0.310913C17.1453 0.310913 11.7009 6.84699 13.5465 11.8056C15.3921 16.7628 17.7898 18.8281 17.7898 18.8281C17.7898 18.8281 9.44418 22.9776 12.6465 32.7532C15.3657 41.0536 -4.58662 34.4577 3.39784 16.9279H3.39931Z" fill="url(#paint0_linear_18_395)"/>
<mask id="mask0_18_395" style="mask-type:luminance" maskUnits="userSpaceOnUse" x="1" y="0" width="17" height="35">
<path d="M3.39938 16.9279C3.39938 16.9279 5.19361 11.9868 17.1453 0.310913C17.1453 0.310913 11.701 6.84699 13.5466 11.8056C15.3922 16.7628 17.7899 18.8281 17.7899 18.8281C17.7899 18.8281 11.3148 20.6231 11.9036 30.5215C12.4219 39.2367 -4.58654 34.4577 3.39791 16.9293L3.39938 16.9279Z" fill="white"/>
</mask>
<g mask="url(#mask0_18_395)">
<g style="mix-blend-mode:soft-light">
<path d="M12.124 27.4092C12.124 27.4092 3.63887 19.0153 5.46246 12.8356C5.46246 12.8356 1.22504 16.5118 5.41107 23.8074C13.8184 38.4614 12.1255 27.4092 12.1255 27.4092H12.124Z" fill="#2B2C29"/>
</g>
</g>
<path d="M30.8972 33.4765C31.0044 33.1318 31.0939 32.7827 31.185 32.4322L31.3098 31.9049C31.3523 31.7296 31.3832 31.55 31.4199 31.3732L31.4727 31.1074L31.5168 30.8387C31.5447 30.659 31.5814 30.4823 31.6019 30.3026L31.6724 29.7637C31.693 29.584 31.7062 29.4029 31.7238 29.2218C31.7311 29.1313 31.7414 29.0407 31.7473 28.9501L31.7605 28.6785L31.7737 28.4068L31.7796 28.271V28.1351L31.784 27.5918C31.7825 27.4107 31.7708 27.2296 31.7649 27.0485C31.7605 26.9579 31.759 26.8674 31.7532 26.7768L31.7297 26.5066L31.7062 26.2364C31.6974 26.1458 31.6915 26.0553 31.6768 25.9662L31.6005 25.4302C31.5902 25.3411 31.5711 25.252 31.5535 25.1643L31.5006 24.9L31.4478 24.6356C31.4302 24.5465 31.4037 24.4618 31.3817 24.3742L31.2452 23.8542V23.8454L31.2422 23.8396C31.185 23.5548 31.0969 23.2612 31.0088 22.9749L30.8649 22.5484L30.7063 22.1278C30.4861 21.5713 30.2453 21.0221 29.9751 20.492C29.84 20.2261 29.7079 19.9588 29.5596 19.7032C29.4142 19.4447 29.2747 19.1818 29.1162 18.9335L28.8842 18.5552C28.8078 18.4282 28.7315 18.3011 28.6492 18.1799L28.1603 17.4437C27.9915 17.2027 27.8167 16.969 27.645 16.731C27.5583 16.6127 27.4746 16.4914 27.3836 16.3775L27.112 16.0343C26.9299 15.8064 26.7522 15.5742 26.5643 15.3507L25.9946 14.692L25.7098 14.3634L25.4102 14.0464L24.8127 13.4125L23.5999 12.1667C23.1961 11.7489 22.7923 11.3327 22.3959 10.9062C21.998 10.4812 21.603 10.0532 21.2154 9.61651C20.8263 9.18126 20.4446 8.7387 20.0701 8.28592C19.6957 7.83315 19.3331 7.37014 18.988 6.88815C18.643 6.40616 18.3141 5.90957 18.0248 5.38376C17.7341 4.85795 17.4786 4.30586 17.2936 3.72309C17.1072 3.14032 17.0059 2.52249 17.0103 1.90467C17.0205 1.28539 17.1527 0.676327 17.3685 0.111084C17.1674 0.68363 17.0543 1.29269 17.0573 1.90467C17.0646 2.51665 17.1762 3.12279 17.3715 3.69241C17.5667 4.2635 17.8281 4.80245 18.1247 5.31511C18.4227 5.82632 18.7516 6.31707 19.0996 6.78884C19.4476 7.26206 19.8132 7.71776 20.1905 8.16178C20.5679 8.60579 20.9526 9.0425 21.3461 9.47045C21.7381 9.89986 22.136 10.3205 22.5383 10.7382L23.7482 11.987L24.9683 13.2285L25.5688 13.8595L25.8683 14.175L26.1576 14.5051L26.7361 15.1682C26.9255 15.3931 27.1061 15.6268 27.2911 15.8546L27.5671 16.1993C27.6582 16.3147 27.7433 16.4374 27.8314 16.5557C28.0061 16.7952 28.1838 17.0319 28.3541 17.2728L28.8519 18.0134C28.937 18.136 29.0134 18.2646 29.0912 18.3916L29.3247 18.7743C29.4847 19.027 29.6242 19.2928 29.771 19.5557C29.9208 19.8157 30.0544 20.0874 30.1895 20.3561C30.4611 20.8951 30.7034 21.4516 30.9251 22.0197L31.0836 22.4491L31.229 22.8858C31.3186 23.1823 31.4067 23.4715 31.4683 23.787L31.4654 23.7724L31.6019 24.3055C31.624 24.3946 31.6504 24.4822 31.668 24.5728L31.7209 24.843L31.7737 25.1132C31.7913 25.2038 31.8104 25.2929 31.8207 25.3849L31.8971 25.9326C31.9117 26.0232 31.9176 26.1152 31.9264 26.2072L31.9499 26.4832L31.9734 26.7593C31.9793 26.8513 31.9808 26.9433 31.9837 27.0353C31.9896 27.2194 31.9998 27.4034 31.9998 27.5874L31.9925 28.141L31.9896 28.2797L31.9808 28.417L31.9646 28.6931L31.9485 28.9691C31.9426 29.0611 31.9308 29.1517 31.922 29.2437C31.9029 29.4263 31.8868 29.6103 31.8633 29.7914L31.7855 30.3362C31.762 30.5188 31.7238 30.697 31.693 30.8781L31.6445 31.1483L31.5873 31.4171C31.5476 31.5953 31.5138 31.7749 31.4698 31.9516L31.3377 32.4818C31.2407 32.8324 31.1468 33.1844 31.0352 33.5291C30.9823 33.7029 30.9016 33.919 30.8032 34.1556C29.9678 35.9434 28.8489 37.5661 28.313 38.1182L30.8957 33.4765H30.8972Z" fill="#FFED00"/>
<path d="M4.63278 14.6949C1.03699 19.9881 -0.18021 24.4122 0.0209432 28.2199C0.227969 30.4838 0.841706 32.6571 1.79608 34.6274C2.33641 35.6907 2.9707 36.7 3.66372 37.6654C6.52979 41.4147 10.8597 43.8904 15.984 43.8904C17.5932 43.8904 19.1466 43.645 20.6105 43.1966C19.6312 32.292 0.88135 23.0655 4.63278 14.6949Z" fill="url(#paint1_linear_18_395)"/>
<path d="M6.76194 23.3591C7.10405 23.8601 7.49168 24.3377 7.89251 24.8284C8.69713 25.8026 9.57221 26.8017 10.4928 27.8153C11.4149 28.8289 12.3707 29.8689 13.3633 30.9103C13.8581 31.4215 14.3412 31.9619 14.8125 32.5154C15.2838 33.069 15.7434 33.6401 16.1868 34.2272C17.0765 35.3942 17.9061 36.624 18.6138 37.9079C19.3201 39.1903 19.9147 40.5325 20.2524 41.9128C20.273 41.9989 20.2994 42.0837 20.3156 42.1713C20.3332 42.2575 20.3508 42.3451 20.3669 42.4313C20.3846 42.5175 20.4007 42.6036 20.4183 42.6898C20.4301 42.776 20.4418 42.8621 20.455 42.9483C20.4668 43.0345 20.4785 43.1192 20.4917 43.2054C20.4932 43.2141 20.4932 43.2244 20.4947 43.2346C20.5343 43.2229 20.9322 43.0579 20.9719 43.0462C19.2804 32.2481 1.33375 23.2875 4.50962 14.9973C4.51109 14.9929 4.51402 14.9856 4.51549 14.9812C4.54192 14.9184 4.56248 14.8658 4.58009 14.8235C4.61533 14.7388 4.63295 14.6949 4.63295 14.6949C4.63295 14.6949 4.61386 14.7388 4.57716 14.822C4.55807 14.8644 4.53605 14.9155 4.50815 14.9783C4.48172 15.0396 4.45676 15.1156 4.42446 15.1988C4.40977 15.2412 4.39216 15.285 4.376 15.3318C4.36132 15.38 4.34664 15.4296 4.33049 15.4822C4.31434 15.5348 4.29672 15.5903 4.28204 15.6472C4.26882 15.7057 4.25414 15.767 4.23799 15.8298C4.20422 15.9554 4.1866 16.0956 4.1587 16.2432C4.14255 16.3921 4.11906 16.5513 4.11318 16.7208C4.0941 17.0596 4.10437 17.4364 4.16017 17.841C4.21449 18.2456 4.31287 18.6765 4.45676 19.1205C4.59918 19.566 4.79153 20.0217 5.01911 20.4876C5.24816 20.9521 5.51685 21.4209 5.81344 21.897C6.1115 22.3732 6.42718 22.8566 6.76341 23.3576L6.76194 23.3591Z" fill="#BD4C22"/>
<path d="M29.2558 18.916C24.5353 11.08 15.2353 6.42077 17.3672 0.109619C12.3237 4.65493 10.8746 8.77375 11.4252 12.5756C12.889 22.6624 28.4424 30.5071 28.3147 38.1167C29.3204 36.9044 30.1515 35.5403 30.7681 34.0636C32.8854 27.7539 31.6682 22.9209 29.2558 18.916Z" fill="url(#paint2_linear_18_395)"/>
<mask id="mask1_18_395" style="mask-type:luminance" maskUnits="userSpaceOnUse" x="-1" y="14" width="22" height="30">
<path d="M4.63278 14.6949C1.03699 19.9881 -0.18021 24.4122 0.0209432 28.2199C0.227969 30.4838 0.841706 32.6571 1.79608 34.6274C2.33641 35.6907 2.9707 36.7 3.66372 37.6654C6.52979 41.4147 10.8597 43.8904 15.984 43.8904C17.5932 43.8904 19.1466 43.645 20.6105 43.1966C19.6312 32.292 0.88135 23.0655 4.63278 14.6949Z" fill="white"/>
</mask>
<g mask="url(#mask1_18_395)">
<path d="M14.1498 47.453C14.1498 47.453 19.3651 47.1521 14.9222 40.0786C10.4792 33.005 4.10981 30.7484 3.03357 25.5414C1.95733 20.3345 -8.55548 27.9558 4.71621 39.9632C14.1175 48.4681 14.1513 47.4545 14.1513 47.4545L14.1498 47.453Z" fill="url(#paint3_linear_18_395)"/>
</g>
<mask id="mask2_18_395" style="mask-type:luminance" maskUnits="userSpaceOnUse" x="11" y="0" width="21" height="39">
<path d="M29.2558 18.916C24.5353 11.08 15.2353 6.42077 17.3672 0.109619C12.3237 4.65493 10.8746 8.77375 11.4252 12.5756C12.889 22.6624 28.4424 30.5071 28.3147 38.1167C29.3204 36.9044 30.1515 35.5403 30.7681 34.0636C32.8854 27.7539 31.6682 22.9209 29.2558 18.916Z" fill="white"/>
</mask>
<g mask="url(#mask2_18_395)">
<path d="M27.4835 40.0536C27.4835 40.0536 31.2452 32.7259 26.8022 25.6523C22.3592 18.5787 17.1512 16.0928 16.075 10.8844C14.9988 5.67745 5.69873 12.3508 18.4007 24.9527C28.6228 35.0934 27.4835 40.0536 27.4835 40.0536Z" fill="url(#paint4_linear_18_395)"/>
</g>
<defs>
<linearGradient id="paint0_linear_18_395" x1="9.64533" y1="36.3126" x2="9.64533" y2="0.310913" gradientUnits="userSpaceOnUse">
<stop stop-color="#007E9F"/>
<stop offset="0.03" stop-color="#0986A6"/>
<stop offset="0.13" stop-color="#209AB8"/>
<stop offset="0.23" stop-color="#31A8C5"/>
<stop offset="0.35" stop-color="#3AB1CD"/>
<stop offset="0.5" stop-color="#3EB4D0"/>
<stop offset="0.82" stop-color="#6AC0E4"/>
<stop offset="1" stop-color="#68BDCE"/>
</linearGradient>
<linearGradient id="paint1_linear_18_395" x1="16.9618" y1="43.6275" x2="-0.0833591" y2="20.173" gradientUnits="userSpaceOnUse">
<stop stop-color="#F7BB0C"/>
<stop offset="0.1" stop-color="#F4B118"/>
<stop offset="0.25" stop-color="#F1A627"/>
<stop offset="0.35" stop-color="#EE9824"/>
<stop offset="0.61" stop-color="#E97B1F"/>
<stop offset="0.83" stop-color="#E76A1D"/>
<stop offset="1" stop-color="#E6641C"/>
</linearGradient>
<linearGradient id="paint2_linear_18_395" x1="28.8359" y1="37.3923" x2="14.8001" y2="1.30401" gradientUnits="userSpaceOnUse">
<stop stop-color="#99BD11"/>
<stop offset="0.37" stop-color="#7FB41E"/>
<stop offset="0.42" stop-color="#77B220"/>
<stop offset="0.61" stop-color="#63AD28"/>
<stop offset="0.81" stop-color="#57AA2C"/>
<stop offset="1" stop-color="#54A92E"/>
</linearGradient>
<linearGradient id="paint3_linear_18_395" x1="7.38993" y1="47.491" x2="7.38993" y2="23.8778" gradientUnits="userSpaceOnUse">
<stop stop-color="white"/>
<stop offset="0.03" stop-color="white" stop-opacity="0.93"/>
<stop offset="0.1" stop-color="white" stop-opacity="0.74"/>
<stop offset="0.17" stop-color="white" stop-opacity="0.56"/>
<stop offset="0.25" stop-color="white" stop-opacity="0.41"/>
<stop offset="0.34" stop-color="white" stop-opacity="0.28"/>
<stop offset="0.43" stop-color="white" stop-opacity="0.18"/>
<stop offset="0.53" stop-color="white" stop-opacity="0.1"/>
<stop offset="0.64" stop-color="white" stop-opacity="0.04"/>
<stop offset="0.78" stop-color="white" stop-opacity="0"/>
<stop offset="1" stop-color="white" stop-opacity="0"/>
</linearGradient>
<linearGradient id="paint4_linear_18_395" x1="20.377" y1="40.0536" x2="20.377" y2="9.10543" gradientUnits="userSpaceOnUse">
<stop stop-color="white"/>
<stop offset="0.03" stop-color="white" stop-opacity="0.93"/>
<stop offset="0.1" stop-color="white" stop-opacity="0.74"/>
<stop offset="0.17" stop-color="white" stop-opacity="0.56"/>
<stop offset="0.25" stop-color="white" stop-opacity="0.41"/>
<stop offset="0.34" stop-color="white" stop-opacity="0.28"/>
<stop offset="0.43" stop-color="white" stop-opacity="0.18"/>
<stop offset="0.53" stop-color="white" stop-opacity="0.1"/>
<stop offset="0.64" stop-color="white" stop-opacity="0.04"/>
<stop offset="0.78" stop-color="white" stop-opacity="0"/>
<stop offset="1" stop-color="white" stop-opacity="0"/>
</linearGradient>
</defs>
</svg>
