<svg width="235" height="322" viewBox="0 0 235 322" fill="none" xmlns="http://www.w3.org/2000/svg">
<path d="M24.9529 123.701C24.9529 123.701 38.1247 87.3591 125.865 1.48242C125.865 1.48242 85.8968 49.5557 99.4459 86.027C112.995 122.488 130.597 137.678 130.597 137.678C130.597 137.678 69.3296 168.197 92.8384 240.098C112.801 301.148 -33.6735 252.635 24.9422 123.701H24.9529Z" fill="url(#paint0_linear_75_732)"/>
<mask id="mask0_75_732" style="mask-type:luminance" maskUnits="userSpaceOnUse" x="9" y="1" width="122" height="254">
<path d="M24.9529 123.701C24.9529 123.701 38.1247 87.3591 125.865 1.48242C125.865 1.48242 85.8968 49.5558 99.4459 86.027C112.995 122.488 130.597 137.678 130.597 137.678C130.597 137.678 83.0619 150.88 87.3843 223.683C91.1892 287.785 -33.6735 252.635 24.9421 123.712L24.9529 123.701Z" fill="white"/>
</mask>
<g mask="url(#mask0_75_732)">
<g style="mix-blend-mode:soft-light">
<path d="M89.0012 200.791C89.0012 200.791 26.71 139.053 40.0974 93.6006C40.0974 93.6006 8.98948 120.64 39.7201 174.299C101.44 282.08 89.012 200.791 89.012 200.791H89.0012Z" fill="#2B2C29"/>
</g>
</g>
<path d="M226.82 245.416C227.607 242.88 228.265 240.313 228.933 237.735L229.849 233.857C230.162 232.567 230.388 231.246 230.658 229.946L231.046 227.991L231.369 226.014C231.574 224.693 231.843 223.393 231.994 222.072L232.512 218.108C232.663 216.787 232.76 215.454 232.889 214.122C232.943 213.456 233.018 212.79 233.061 212.124L233.158 210.126L233.255 208.128L233.298 207.129V206.13L233.331 202.134C233.32 200.801 233.234 199.469 233.191 198.137C233.158 197.471 233.148 196.805 233.104 196.139L232.932 194.152L232.76 192.164C232.695 191.498 232.652 190.832 232.544 190.177L231.983 186.234C231.908 185.579 231.768 184.924 231.639 184.279L231.25 182.335L230.862 180.39C230.733 179.735 230.539 179.112 230.377 178.468L229.375 174.643V174.579L229.353 174.536C228.933 172.441 228.286 170.282 227.64 168.176L226.583 165.039L225.419 161.945C223.802 157.852 222.035 153.813 220.051 149.914C219.06 147.958 218.089 145.993 217.001 144.113C215.934 142.211 214.91 140.277 213.746 138.451L212.043 135.669C211.482 134.734 210.921 133.8 210.318 132.908L206.729 127.494C205.489 125.721 204.206 124.002 202.945 122.251C202.309 121.381 201.695 120.489 201.026 119.652L199.032 117.127C197.696 115.451 196.392 113.743 195.012 112.099L190.83 107.255L188.739 104.837L186.54 102.506L182.153 97.844L173.249 88.6805C170.285 85.6081 167.321 82.5465 164.411 79.4096C161.489 76.2835 158.59 73.1359 155.744 69.9239C152.888 66.7225 150.085 63.4675 147.337 60.1373C144.588 56.8071 141.926 53.4017 139.393 49.8566C136.86 46.3115 134.445 42.659 132.322 38.7917C130.188 34.9243 128.312 30.8636 126.954 26.5773C125.585 22.291 124.841 17.7468 124.874 13.2027C124.949 8.64783 125.919 4.16814 127.504 0.0107422C126.027 4.22186 125.197 8.70154 125.218 13.2027C125.272 17.7039 126.092 22.1621 127.525 26.3517C128.959 30.5521 130.877 34.5161 133.055 38.2868C135.243 42.0467 137.657 45.6562 140.212 49.1261C142.767 52.6067 145.45 55.9584 148.221 59.2242C150.991 62.49 153.815 65.702 156.704 68.8496C159.582 72.0079 162.503 75.1018 165.456 78.1742L174.338 87.3592L183.295 96.4904L187.704 101.131L189.903 103.452L192.026 105.879L196.273 110.757C197.663 112.411 198.989 114.13 200.347 115.806L202.374 118.341C203.042 119.19 203.667 120.092 204.314 120.962C205.597 122.724 206.901 124.464 208.151 126.237L211.805 131.683C212.431 132.586 212.991 133.531 213.562 134.466L215.276 137.28C216.451 139.139 217.475 141.094 218.553 143.028C219.652 144.94 220.633 146.938 221.625 148.915C223.619 152.879 225.398 156.971 227.025 161.15L228.189 164.309L229.256 167.521C229.914 169.702 230.561 171.829 231.013 174.149L230.992 174.042L231.994 177.963C232.156 178.618 232.35 179.262 232.479 179.929L232.867 181.916L233.255 183.903C233.385 184.569 233.525 185.225 233.6 185.901L234.161 189.93C234.269 190.596 234.312 191.273 234.376 191.95L234.549 193.98L234.721 196.01C234.764 196.687 234.775 197.364 234.797 198.041C234.84 199.394 234.915 200.748 234.915 202.101L234.861 206.173L234.84 207.193L234.775 208.203L234.657 210.234L234.538 212.264C234.495 212.941 234.409 213.607 234.344 214.284C234.204 215.626 234.085 216.98 233.913 218.312L233.342 222.319C233.169 223.662 232.889 224.972 232.663 226.305L232.307 228.292L231.886 230.269C231.595 231.579 231.348 232.9 231.024 234.2L230.054 238.1C229.343 240.678 228.653 243.267 227.834 245.802C227.446 247.081 226.853 248.671 226.131 250.411C219.997 263.56 211.784 275.495 207.85 279.556L226.81 245.416H226.82Z" fill="#FFED00"/>
<path d="M34.0072 107.276C7.60973 146.207 -1.32597 178.747 0.150739 206.753C1.67056 223.404 6.17614 239.389 13.1824 253.881C17.1491 261.702 21.8055 269.125 26.8932 276.226C47.9336 303.802 79.7205 322.011 117.339 322.011C129.153 322.011 140.557 320.206 151.303 316.908C144.114 236.703 6.46717 168.842 34.0072 107.276Z" fill="url(#paint1_linear_75_732)"/>
<path d="M49.6368 171.001C52.1483 174.686 54.9939 178.199 57.9365 181.808C63.8434 188.974 70.2676 196.322 77.026 203.777C83.7951 211.233 90.8122 218.881 98.0987 226.541C101.731 230.301 105.277 234.276 108.737 238.347C112.197 242.418 115.571 246.619 118.827 250.937C125.359 259.521 131.449 268.566 136.644 278.009C141.829 287.441 146.194 297.313 148.673 307.465C148.824 308.099 149.018 308.722 149.137 309.367C149.266 310 149.395 310.645 149.514 311.279C149.643 311.913 149.762 312.546 149.891 313.18C149.978 313.814 150.064 314.448 150.161 315.082C150.247 315.716 150.333 316.339 150.43 316.972C150.441 317.037 150.441 317.112 150.452 317.187C150.743 317.101 153.664 315.887 153.955 315.801C141.538 236.381 9.78721 170.475 33.102 109.5C33.1127 109.467 33.1343 109.414 33.1451 109.382C33.3391 108.92 33.49 108.533 33.6193 108.221C33.878 107.598 34.0074 107.276 34.0074 107.276C34.0074 107.276 33.8673 107.598 33.5978 108.211C33.4577 108.522 33.296 108.898 33.0912 109.36C32.8972 109.811 32.7139 110.37 32.4768 110.982C32.369 111.294 32.2396 111.616 32.1211 111.96C32.0133 112.314 31.9055 112.68 31.7869 113.066C31.6684 113.453 31.539 113.861 31.4312 114.28C31.3342 114.71 31.2264 115.161 31.1079 115.623C30.86 116.547 30.7306 117.578 30.5258 118.663C30.4072 119.759 30.2348 120.93 30.1917 122.176C30.0515 124.668 30.127 127.44 30.5366 130.416C30.9354 133.391 31.6576 136.56 32.7139 139.826C33.7595 143.103 35.1715 146.454 36.8422 149.881C38.5237 153.297 40.4963 156.746 42.6736 160.248C44.8617 163.75 47.1792 167.306 49.6476 170.991L49.6368 171.001Z" fill="#BD4C22"/>
<path d="M214.769 138.322C180.115 80.688 111.842 46.419 127.493 0C90.4671 33.4311 79.8283 63.7254 83.8704 91.6885C94.6169 165.877 208.798 223.576 207.86 279.545C215.244 270.629 221.344 260.595 225.872 249.734C241.415 203.326 232.479 167.779 214.769 138.322Z" fill="url(#paint2_linear_75_732)"/>
<mask id="mask1_75_732" style="mask-type:luminance" maskUnits="userSpaceOnUse" x="-1" y="107" width="153" height="216">
<path d="M34.0072 107.276C7.60973 146.207 -1.32597 178.747 0.150739 206.753C1.67056 223.404 6.17614 239.389 13.1824 253.881C17.1491 261.702 21.8055 269.125 26.8932 276.226C47.9336 303.802 79.7205 322.011 117.339 322.011C129.153 322.011 140.557 320.206 151.303 316.908C144.114 236.703 6.46717 168.842 34.0072 107.276Z" fill="white"/>
</mask>
<g mask="url(#mask1_75_732)">
<path d="M103.876 348.212C103.876 348.212 142.163 345.999 109.546 293.972C76.9289 241.946 30.1701 225.348 22.2692 187.051C14.3682 148.753 -62.8086 204.809 34.6218 293.124C103.639 355.678 103.887 348.223 103.887 348.223L103.876 348.212Z" fill="url(#paint3_linear_75_732)"/>
</g>
<mask id="mask2_75_732" style="mask-type:luminance" maskUnits="userSpaceOnUse" x="83" y="0" width="151" height="280">
<path d="M214.769 138.322C180.115 80.688 111.842 46.419 127.493 0C90.4671 33.4311 79.8283 63.7254 83.8704 91.6885C94.6169 165.877 208.798 223.576 207.86 279.545C215.244 270.629 221.344 260.595 225.872 249.734C241.415 203.326 232.479 167.779 214.769 138.322Z" fill="white"/>
</mask>
<g mask="url(#mask2_75_732)">
<path d="M201.759 293.79C201.759 293.79 229.374 239.894 196.758 187.867C164.141 135.841 125.908 117.557 118.007 79.2486C110.106 40.951 41.8324 90.0342 135.081 182.722C210.123 257.308 201.759 293.79 201.759 293.79Z" fill="url(#paint4_linear_75_732)"/>
</g>
<defs>
<linearGradient id="paint0_linear_75_732" x1="70.8064" y1="266.278" x2="70.8064" y2="1.48242" gradientUnits="userSpaceOnUse">
<stop stop-color="#007E9F"/>
<stop offset="0.03" stop-color="#0986A6"/>
<stop offset="0.13" stop-color="#209AB8"/>
<stop offset="0.23" stop-color="#31A8C5"/>
<stop offset="0.35" stop-color="#3AB1CD"/>
<stop offset="0.5" stop-color="#3EB4D0"/>
<stop offset="0.82" stop-color="#6AC0E4"/>
<stop offset="1" stop-color="#68BDCE"/>
</linearGradient>
<linearGradient id="paint1_linear_75_732" x1="124.518" y1="320.077" x2="-0.923993" y2="147.792" gradientUnits="userSpaceOnUse">
<stop stop-color="#F7BB0C"/>
<stop offset="0.1" stop-color="#F4B118"/>
<stop offset="0.25" stop-color="#F1A627"/>
<stop offset="0.35" stop-color="#EE9824"/>
<stop offset="0.61" stop-color="#E97B1F"/>
<stop offset="0.83" stop-color="#E76A1D"/>
<stop offset="1" stop-color="#E6641C"/>
</linearGradient>
<linearGradient id="paint2_linear_75_732" x1="211.686" y1="274.217" x2="108.309" y2="8.91651" gradientUnits="userSpaceOnUse">
<stop stop-color="#99BD11"/>
<stop offset="0.37" stop-color="#7FB41E"/>
<stop offset="0.42" stop-color="#77B220"/>
<stop offset="0.61" stop-color="#63AD28"/>
<stop offset="0.81" stop-color="#57AA2C"/>
<stop offset="1" stop-color="#54A92E"/>
</linearGradient>
<linearGradient id="paint3_linear_75_732" x1="54.2501" y1="348.491" x2="54.2501" y2="174.815" gradientUnits="userSpaceOnUse">
<stop stop-color="white"/>
<stop offset="0.03" stop-color="white" stop-opacity="0.93"/>
<stop offset="0.1" stop-color="white" stop-opacity="0.74"/>
<stop offset="0.17" stop-color="white" stop-opacity="0.56"/>
<stop offset="0.25" stop-color="white" stop-opacity="0.41"/>
<stop offset="0.34" stop-color="white" stop-opacity="0.28"/>
<stop offset="0.43" stop-color="white" stop-opacity="0.18"/>
<stop offset="0.53" stop-color="white" stop-opacity="0.1"/>
<stop offset="0.64" stop-color="white" stop-opacity="0.04"/>
<stop offset="0.78" stop-color="white" stop-opacity="0"/>
<stop offset="1" stop-color="white" stop-opacity="0"/>
</linearGradient>
<linearGradient id="paint4_linear_75_732" x1="149.589" y1="293.79" x2="149.589" y2="66.164" gradientUnits="userSpaceOnUse">
<stop stop-color="white"/>
<stop offset="0.03" stop-color="white" stop-opacity="0.93"/>
<stop offset="0.1" stop-color="white" stop-opacity="0.74"/>
<stop offset="0.17" stop-color="white" stop-opacity="0.56"/>
<stop offset="0.25" stop-color="white" stop-opacity="0.41"/>
<stop offset="0.34" stop-color="white" stop-opacity="0.28"/>
<stop offset="0.43" stop-color="white" stop-opacity="0.18"/>
<stop offset="0.53" stop-color="white" stop-opacity="0.1"/>
<stop offset="0.64" stop-color="white" stop-opacity="0.04"/>
<stop offset="0.78" stop-color="white" stop-opacity="0"/>
<stop offset="1" stop-color="white" stop-opacity="0"/>
</linearGradient>
</defs>
</svg>
