<svg width="25" height="24" viewBox="0 0 25 24" fill="none" xmlns="http://www.w3.org/2000/svg">
<path d="M19.0156 8.75C16.9456 8.75 15.2656 7.07 15.2656 5C15.2656 2.93 16.9456 1.25 19.0156 1.25C21.0856 1.25 22.7656 2.93 22.7656 5C22.7656 7.07 21.0856 8.75 19.0156 8.75ZM19.0156 2.75C17.7756 2.75 16.7656 3.76 16.7656 5C16.7656 6.24 17.7756 7.25 19.0156 7.25C20.2556 7.25 21.2656 6.24 21.2656 5C21.2656 3.76 20.2556 2.75 19.0156 2.75Z" fill="#464646"/>
<path d="M12.0156 13.75H7.01562C6.60563 13.75 6.26562 13.41 6.26562 13C6.26562 12.59 6.60563 12.25 7.01562 12.25H12.0156C12.4256 12.25 12.7656 12.59 12.7656 13C12.7656 13.41 12.4256 13.75 12.0156 13.75Z" fill="#464646"/>
<path d="M16.0156 17.75H7.01562C6.60563 17.75 6.26562 17.41 6.26562 17C6.26562 16.59 6.60563 16.25 7.01562 16.25H16.0156C16.4256 16.25 16.7656 16.59 16.7656 17C16.7656 17.41 16.4256 17.75 16.0156 17.75Z" fill="#464646"/>
<path d="M15.0156 22.75H9.01562C3.58563 22.75 1.26562 20.43 1.26562 15V9C1.26562 3.57 3.58563 1.25 9.01562 1.25H14.0156C14.4256 1.25 14.7656 1.59 14.7656 2C14.7656 2.41 14.4256 2.75 14.0156 2.75H9.01562C4.40562 2.75 2.76562 4.39 2.76562 9V15C2.76562 19.61 4.40562 21.25 9.01562 21.25H15.0156C19.6256 21.25 21.2656 19.61 21.2656 15V10C21.2656 9.59 21.6056 9.25 22.0156 9.25C22.4256 9.25 22.7656 9.59 22.7656 10V15C22.7656 20.43 20.4456 22.75 15.0156 22.75Z" fill="#464646"/>
</svg>
