<svg xmlns="http://www.w3.org/2000/svg" id="Layer_1" data-name="Layer 1" viewBox="0 0 1080 1034.3">
    <defs>
        <style> .cls-1 {        fill: #fff;        stroke-width: 0px;      } </style>
    </defs>
    <path class="cls-1" d="M560.1,391c22.3-28.4,44-56.1,65.8-83.8,51.1-65,102.2-130.1,153.4-195,1.9-2.4,5.4-5,8.2-5,36.1-.3,72.2-.2,110-.2-1.9,3-3,5.1-4.5,6.9-89.8,114.3-179.5,228.6-269.5,342.8-4.5,5.7-5.2,9.2-.4,15.3,118,149.9,235.8,299.9,353.7,450,2.1,2.7,4.1,5.4,7.2,9.6-4.6,0-7.7,0-10.7,0-72.5,0-145.1-.1-217.6.2-7.2,0-11.6-2.3-15.9-7.9-79-100.9-158.2-201.7-237.3-302.4-1.1-1.4-2.2-2.7-3.9-4.7-2.1,2.3-4,4.3-5.7,6.5-77.5,98.7-155.1,197.4-232.5,296.2-4.5,5.8-8.9,8.5-16.6,8.4-31.5-.5-62.9-.2-94.4-.2-2.8,0-5.6,0-10.7,0,101.4-129.1,201.5-256.5,302.1-384.7C326.1,396.7,211.4,250.7,95.9,103.7c3.2-.3,5.3-.7,7.4-.7,74.3,0,148.6.1,222.9-.3,7.3,0,10.3,3.8,13.9,8.4,71.2,90.7,142.5,181.4,213.7,272.1,1.8,2.3,3.6,4.5,6.4,7.8ZM195.8,152c1.9,2.7,3.2,4.5,4.5,6.3,188.3,239.8,376.6,479.6,565.1,719.2,2.2,2.9,7.1,5.2,10.7,5.2,33.8.4,67.6.2,101.4.2,1.8,0,3.7-.4,6.5-.8-3.2-4.1-5.6-7.3-8.1-10.5-24.6-31.4-49.3-62.8-73.9-94.1-162.4-206.8-324.9-413.6-487.2-620.4-3.2-4.1-6.5-5.8-11.7-5.7-33.2.2-66.4.1-99.6.1-2.2,0-4.4.3-7.7.5Z"></path>
</svg>