<svg width="24" height="25" viewBox="0 0 24 25" fill="none" xmlns="http://www.w3.org/2000/svg">
<path d="M12.7 17.3798H13.4C14.55 17.3798 15.49 16.4398 15.49 15.2898V14.5898H12.7V17.3798Z" fill="white"/>
<path d="M8.51001 15.2898C8.51001 16.4398 9.45001 17.3798 10.6 17.3798H11.3V14.5898H8.51001V15.2898Z" fill="white"/>
<path d="M8.51001 12.5002V13.2002H11.3V10.4102H10.6C9.45001 10.4102 8.51001 11.3502 8.51001 12.5002Z" fill="white"/>
<path d="M20.03 7.32018L14.28 3.29018C12.71 2.19018 10.31 2.25018 8.8 3.42018L3.79 7.33018C2.78 8.11018 2 9.71018 2 10.9702V17.8702C2 20.4202 4.07 22.5002 6.61 22.5002H17.38C19.92 22.5002 21.99 20.4302 21.99 17.8802V11.1002C22 9.75018 21.13 8.09018 20.03 7.32018ZM16.88 15.2902C16.88 17.2102 15.31 18.7802 13.39 18.7802H10.6C8.68 18.7802 7.11 17.2202 7.11 15.2902V12.5002C7.11 10.5802 8.68 9.01018 10.6 9.01018H13.39C15.31 9.01018 16.88 10.5702 16.88 12.5002V15.2902Z" fill="white"/>
<path d="M13.4 10.4102H12.7V13.2002H15.49V12.5002C15.49 11.3502 14.55 10.4102 13.4 10.4102Z" fill="white"/>
</svg>
