<svg width="48" height="42" viewBox="0 0 48 42" fill="none" xmlns="http://www.w3.org/2000/svg">
<path d="M21.02 3.33992L15.63 7.53992C14.73 8.23992 14 9.72992 14 10.8599V18.2699C14 20.5899 15.89 22.4899 18.21 22.4899H29.79C32.11 22.4899 34 20.5899 34 18.2799V10.9999C34 9.78992 33.19 8.23992 32.2 7.54992L26.02 3.21992C24.62 2.23992 22.37 2.28992 21.02 3.33992Z" stroke="white" stroke-width="1.5" stroke-linecap="round" stroke-linejoin="round"/>
<path d="M22.5 18.5H25.5C27.15 18.5 28.5 17.15 28.5 15.5V12.5C28.5 10.85 27.15 9.5 25.5 9.5H22.5C20.85 9.5 19.5 10.85 19.5 12.5V15.5C19.5 17.15 20.85 18.5 22.5 18.5Z" stroke="white" stroke-width="1.5" stroke-linecap="round" stroke-linejoin="round"/>
<path d="M24 9.5V18.5" stroke="white" stroke-width="1.5" stroke-linecap="round" stroke-linejoin="round"/>
<path d="M19.5 14H28.5" stroke="white" stroke-width="1.5" stroke-linecap="round" stroke-linejoin="round"/>
<path d="M8.3283 38.5V29.7727H9.38512V33.6591H14.0385V29.7727H15.0953V38.5H14.0385V34.5966H9.38512V38.5H8.3283ZM19.7338 38.6364C19.1429 38.6364 18.6245 38.4957 18.1784 38.2145C17.7353 37.9332 17.3887 37.5398 17.1387 37.0341C16.8915 36.5284 16.7679 35.9375 16.7679 35.2614C16.7679 34.5795 16.8915 33.9844 17.1387 33.4759C17.3887 32.9673 17.7353 32.5724 18.1784 32.2912C18.6245 32.0099 19.1429 31.8693 19.7338 31.8693C20.3248 31.8693 20.8418 32.0099 21.285 32.2912C21.731 32.5724 22.0776 32.9673 22.3248 33.4759C22.5748 33.9844 22.6998 34.5795 22.6998 35.2614C22.6998 35.9375 22.5748 36.5284 22.3248 37.0341C22.0776 37.5398 21.731 37.9332 21.285 38.2145C20.8418 38.4957 20.3248 38.6364 19.7338 38.6364ZM19.7338 37.733C20.1827 37.733 20.552 37.6179 20.8418 37.3878C21.1316 37.1577 21.3461 36.8551 21.4853 36.4801C21.6245 36.1051 21.6941 35.6989 21.6941 35.2614C21.6941 34.8239 21.6245 34.4162 21.4853 34.0384C21.3461 33.6605 21.1316 33.3551 20.8418 33.1222C20.552 32.8892 20.1827 32.7727 19.7338 32.7727C19.285 32.7727 18.9157 32.8892 18.6259 33.1222C18.3361 33.3551 18.1216 33.6605 17.9824 34.0384C17.8432 34.4162 17.7736 34.8239 17.7736 35.2614C17.7736 35.6989 17.8432 36.1051 17.9824 36.4801C18.1216 36.8551 18.3361 37.1577 18.6259 37.3878C18.9157 37.6179 19.285 37.733 19.7338 37.733ZM24.2349 38.5V31.9545H25.2065V32.9773H25.2917C25.4281 32.6278 25.6483 32.3565 25.9522 32.1634C26.2562 31.9673 26.6213 31.8693 27.0474 31.8693C27.4792 31.8693 27.8386 31.9673 28.1255 32.1634C28.4153 32.3565 28.6412 32.6278 28.8031 32.9773H28.8713C29.0389 32.6392 29.2903 32.3707 29.6255 32.1719C29.9608 31.9702 30.3627 31.8693 30.8315 31.8693C31.4167 31.8693 31.8954 32.0526 32.2676 32.419C32.6397 32.7827 32.8258 33.3494 32.8258 34.1193V38.5H31.8201V34.1193C31.8201 33.6364 31.688 33.2912 31.4238 33.0838C31.1596 32.8764 30.8485 32.7727 30.4906 32.7727C30.0304 32.7727 29.6738 32.9119 29.421 33.1903C29.1681 33.4659 29.0417 33.8153 29.0417 34.2386V38.5H28.019V34.017C28.019 33.6449 27.8983 33.3452 27.6568 33.1179C27.4153 32.8878 27.1042 32.7727 26.7235 32.7727C26.4622 32.7727 26.2179 32.8423 25.9906 32.9815C25.7662 33.1207 25.5843 33.3139 25.4451 33.5611C25.3088 33.8054 25.2406 34.0881 25.2406 34.4091V38.5H24.2349ZM37.4089 38.6364C36.7782 38.6364 36.2342 38.4972 35.7768 38.2188C35.3223 37.9375 34.9714 37.5455 34.7243 37.0426C34.4799 36.5369 34.3578 35.9489 34.3578 35.2784C34.3578 34.608 34.4799 34.017 34.7243 33.5057C34.9714 32.9915 35.3152 32.5909 35.7555 32.304C36.1987 32.0142 36.7157 31.8693 37.3066 31.8693C37.6475 31.8693 37.9842 31.9261 38.3166 32.0398C38.649 32.1534 38.9515 32.3381 39.2243 32.5938C39.497 32.8466 39.7143 33.1818 39.8762 33.5994C40.0382 34.017 40.1191 34.5312 40.1191 35.142V35.5682H35.0737V34.6989H39.0964C39.0964 34.3295 39.0225 34 38.8748 33.7102C38.7299 33.4205 38.5225 33.1918 38.2527 33.0241C37.9856 32.8565 37.6703 32.7727 37.3066 32.7727C36.9061 32.7727 36.5595 32.8722 36.2669 33.071C35.9771 33.267 35.7541 33.5227 35.5978 33.8381C35.4416 34.1534 35.3635 34.4915 35.3635 34.8523V35.4318C35.3635 35.9261 35.4487 36.3452 35.6191 36.6889C35.7924 37.0298 36.0325 37.2898 36.3393 37.4688C36.6461 37.6449 37.0027 37.733 37.4089 37.733C37.6731 37.733 37.9118 37.696 38.1248 37.6222C38.3407 37.5455 38.5268 37.4318 38.6831 37.2812C38.8393 37.1278 38.96 36.9375 39.0453 36.7102L40.0169 36.983C39.9146 37.3125 39.7427 37.6023 39.5012 37.8523C39.2598 38.0994 38.9615 38.2926 38.6064 38.4318C38.2512 38.5682 37.8521 38.6364 37.4089 38.6364Z" fill="white"/>
</svg>
