<svg width="248" height="96" viewBox="0 0 248 96" fill="none" xmlns="http://www.w3.org/2000/svg">
<g clip-path="url(#clip0_5_975)">
<path d="M122.343 25.382C122.079 30.1477 119.874 32.8092 116.113 32.8092C111.822 32.8092 109.413 29.504 109.413 22.0191C109.413 14.5342 111.825 11.2289 116.113 11.2289C120.402 11.2289 122.137 14.2396 122.137 17.6601H120.257C120.257 14.8225 118.818 12.8079 116.113 12.8079C113.116 12.8079 111.294 15.2644 111.294 22.0191C111.294 28.7738 113.116 31.2303 116.113 31.2303C118.76 31.2303 120.257 28.9787 120.463 25.382H122.343Z" fill="white"/>
<path d="M127.105 16.9331H128.87V27.8674C128.87 30.3815 129.723 31.3456 131.574 31.3456C133.574 31.3456 134.984 29.7666 134.984 27.3677V16.9299H136.748V32.4569H135.161V30.2919H135.103C134.221 32.0181 132.691 32.806 131.104 32.806C128.725 32.806 127.105 31.5794 127.105 28.6552V16.9299V16.9331Z" fill="white"/>
<path d="M142.476 16.9331H144.063V19.0982H144.121C144.945 17.3719 146.356 16.584 148.088 16.584C149.968 16.584 151.114 17.7242 151.349 19.3031H151.407C152.112 17.5768 153.378 16.584 155.377 16.584C157.554 16.584 158.993 17.8106 158.993 20.5907V32.4634H157.228V20.8565C157.228 19.0149 156.375 18.0509 154.788 18.0509C153.024 18.0509 151.613 19.6298 151.613 22.0287V32.4666H149.849V20.8597C149.849 19.0181 148.996 18.0541 147.408 18.0541C145.644 18.0541 144.234 19.633 144.234 22.0319V32.4698H142.47V16.9427L142.476 16.9331Z" fill="white"/>
<path d="M164.547 11.5812H166.311V19.2711H166.369C166.752 17.6345 168.072 16.5808 170.014 16.5808C173.452 16.5808 175.01 19.3288 175.01 24.6806C175.01 30.0324 173.452 32.8092 170.014 32.8092C168.162 32.8092 166.662 31.669 166.192 29.8851H166.134V32.4569H164.547V11.5812ZM169.721 31.3488C171.485 31.3488 173.13 30.4424 173.13 24.6838C173.13 18.9252 171.485 18.0476 169.721 18.0476C167.956 18.0476 166.311 18.954 166.311 24.6838C166.311 30.4136 167.927 31.3488 169.721 31.3488Z" fill="white"/>
<path d="M179.978 16.9331H181.743V19.3608H181.801C182.477 17.6345 183.916 16.584 185.738 16.584C185.944 16.584 186.151 16.6128 186.357 16.6705V18.4256C186.064 18.3679 185.767 18.3391 185.503 18.3391C183.562 18.3391 181.74 19.7419 181.74 22.7557V32.4633H179.975V16.9363L179.978 16.9331Z" fill="white"/>
<path d="M199.963 27.3133C199.699 30.6185 197.876 32.8092 194.937 32.8092C191.643 32.8092 189.705 30.5289 189.705 24.6806C189.705 19.2999 191.646 16.5808 195.085 16.5808C198.524 16.5808 200.111 18.9508 200.111 24.1233V24.7671H191.589V25.4973C191.589 29.9716 193.176 31.3456 194.911 31.3456C196.762 31.3456 197.909 30.0292 198.202 27.3101H199.966L199.963 27.3133ZM198.231 23.3066C198.173 19.4473 197.084 18.0444 194.908 18.0444C192.731 18.0444 191.646 19.4473 191.585 23.3066H198.227H198.231Z" fill="white"/>
<path d="M222.565 29.8851H222.507C222.037 31.669 220.536 32.8092 218.685 32.8092C215.246 32.8092 213.688 30.0613 213.688 24.6806C213.688 19.2999 215.246 16.5808 218.685 16.5808C220.627 16.5808 221.947 17.6345 222.33 19.2711H222.388V11.5812H224.152V32.4569H222.565V29.8851ZM218.978 31.3488C220.771 31.3488 222.388 30.4424 222.388 24.6838C222.388 18.9252 220.771 18.0476 218.978 18.0476C217.185 18.0476 215.568 18.954 215.568 24.6838C215.568 30.4136 217.214 31.3488 218.978 31.3488Z" fill="white"/>
<path d="M239.201 27.3133C238.937 30.6185 237.114 32.8092 234.175 32.8092C230.881 32.8092 228.943 30.5289 228.943 24.6806C228.943 19.2999 230.884 16.5808 234.323 16.5808C237.761 16.5808 239.349 18.9508 239.349 24.1233V24.7671H230.826V25.4973C230.826 29.9716 232.414 31.3456 234.149 31.3456C236 31.3456 237.147 30.0292 237.44 27.3101H239.204L239.201 27.3133ZM237.465 23.3066C237.407 19.4473 236.319 18.0444 234.143 18.0444C231.966 18.0444 230.881 19.4473 230.82 23.3066H237.462H237.465Z" fill="white"/>
<path d="M244.433 11.5812H246.197V32.4569H244.433V11.5812Z" fill="white"/>
<path d="M80.4623 11.5812H82.4617L87.1366 30.4712H87.1946L91.8695 11.5812H93.8689L88.344 32.4569H85.9936L80.4687 11.5812H80.4623Z" fill="white"/>
<path d="M84.3774 85.4116C84.7219 85.4693 85.0664 85.4981 85.4141 85.4981C86.1417 85.4981 86.6665 85.3059 86.9821 84.9248C87.2976 84.5437 87.4843 84.0088 87.5423 83.3234L83.199 67.9309H87.3394L89.6415 78.5737H89.6995L91.7117 67.9309H95.6816L91.9435 82.2953C91.8276 83.0192 91.554 83.9319 91.1225 85.0273C90.6911 86.1226 90.2597 86.8881 89.8282 87.3173C89.3968 87.7464 88.8784 88.0283 88.2764 88.1628C87.6711 88.2973 86.9112 88.3646 85.9904 88.3646H84.3806V85.418L84.3774 85.4116Z" fill="white"/>
<path d="M118.515 62.8929V66.2686H111.181V71.076H118.084V74.4517H111.181V79.9445H118.802V83.3202H107.037V62.8929H118.512H118.515Z" fill="white"/>
<path d="M122.195 67.9277H125.991V69.7308H126.049C126.471 68.9686 127.018 68.4113 127.688 68.0558C128.358 67.7035 129.127 67.5273 129.99 67.5273C131.255 67.5273 132.228 67.87 132.91 68.5586C133.59 69.244 133.931 70.3618 133.931 71.9055V83.3202H129.961V72.7062C129.961 71.9055 129.826 71.3482 129.559 71.0312C129.291 70.7173 128.857 70.5603 128.264 70.5603C126.864 70.5603 126.165 71.4091 126.165 73.1065V83.3202H122.195V67.9277Z" fill="white"/>
<path d="M141.41 76.2261V77.4559C141.41 77.9139 141.442 78.3559 141.51 78.7851C141.578 79.2142 141.687 79.5954 141.842 79.9285C141.996 80.2616 142.196 80.5306 142.447 80.7292C142.695 80.9309 143.004 81.0302 143.368 81.0302C144.037 81.0302 144.527 80.7932 144.836 80.316C145.142 79.8388 145.354 79.115 145.47 78.1413H149.038C148.96 79.9349 148.481 81.3121 147.598 82.2761C146.716 83.2401 145.325 83.7206 143.429 83.7206C141.99 83.7206 140.869 83.4739 140.064 82.9775C139.26 82.4811 138.664 81.8373 138.281 81.0462C137.898 80.2551 137.663 79.368 137.576 78.3847C137.489 77.4015 137.447 76.4342 137.447 75.4798C137.447 74.4485 137.518 73.4589 137.663 72.5044C137.807 71.55 138.094 70.7013 138.525 69.9582C138.957 69.2152 139.575 68.6227 140.38 68.1839C141.185 67.7451 142.26 67.5273 143.6 67.5273C144.749 67.5273 145.696 67.7131 146.433 68.0846C147.17 68.4561 147.75 68.9814 148.171 69.6572C148.593 70.3362 148.88 71.1561 149.034 72.1169C149.189 73.0809 149.263 74.1539 149.263 75.3357V76.2229H141.41V76.2261ZM145.464 73.8784C145.444 73.2859 145.406 72.7671 145.348 72.3187C145.29 71.8703 145.19 71.4891 145.045 71.1753C144.9 70.8614 144.701 70.6212 144.44 70.4611C144.182 70.2977 143.851 70.2176 143.448 70.2176C143.046 70.2176 142.714 70.3073 142.457 70.4899C142.199 70.6724 141.993 70.9094 141.838 71.2041C141.684 71.4988 141.574 71.8286 141.507 72.1906C141.439 72.5525 141.407 72.9144 141.407 73.2763V73.8784H145.464Z" fill="white"/>
<path d="M152.772 67.9277H156.568V69.987H156.626C157.029 69.244 157.518 68.6483 158.094 68.1999C158.671 67.7515 159.369 67.5273 160.194 67.5273C160.31 67.5273 160.429 67.5337 160.554 67.5401C160.68 67.5497 160.799 67.5657 160.915 67.5818V71.3578C160.702 71.3386 160.496 71.3258 160.297 71.3162C160.094 71.3066 159.888 71.3034 159.679 71.3034C159.334 71.3034 158.99 71.3514 158.642 71.4475C158.297 71.5436 157.979 71.7005 157.692 71.9183C157.405 72.1393 157.174 72.4244 157.003 72.7767C156.829 73.129 156.745 73.5645 156.745 74.077V83.317H152.776V67.9245L152.772 67.9277Z" fill="white"/>
<path d="M175.378 67.9277V82.5483C175.378 84.6077 174.885 86.129 173.896 87.1123C172.908 88.0955 171.256 88.5856 168.935 88.5856C167.248 88.5856 165.947 88.2269 165.039 87.5126C164.128 86.7984 163.674 85.7831 163.674 84.4668H167.47C167.47 84.9632 167.673 85.354 168.075 85.639C168.269 85.7735 168.475 85.876 168.694 85.9529C168.912 86.0298 169.148 86.0682 169.399 86.0682C170.204 86.0682 170.77 85.8056 171.095 85.2803C171.421 84.755 171.585 84.0921 171.585 83.2914V81.2608H171.527C171.124 81.8341 170.632 82.2921 170.046 82.6348C169.46 82.9775 168.851 83.1505 168.22 83.1505C166.649 83.1505 165.464 82.5547 164.669 81.3633C163.874 80.1719 163.474 78.1733 163.474 75.3677C163.474 74.4709 163.526 73.5549 163.632 72.6197C163.739 71.6845 163.957 70.8422 164.296 70.0863C164.63 69.3337 165.12 68.7187 165.764 68.2415C166.404 67.7643 167.264 67.5273 168.339 67.5273C168.896 67.5273 169.469 67.681 170.065 67.9853C170.658 68.2896 171.147 68.8437 171.533 69.6443H171.591V67.9277H175.387H175.378ZM167.438 76.1108C167.438 76.6456 167.46 77.1517 167.509 77.6257C167.557 78.1029 167.654 78.5256 167.795 78.9004C167.94 79.2719 168.14 79.5698 168.401 79.7875C168.658 80.0085 168.999 80.1174 169.421 80.1174C169.843 80.1174 170.194 80.0085 170.471 79.7875C170.748 79.5698 170.97 79.2687 171.131 78.8876C171.295 78.5064 171.408 78.042 171.475 77.5008C171.543 76.9563 171.575 76.3606 171.575 75.7136C171.575 73.8432 171.427 72.5204 171.131 71.7358C170.835 70.9543 170.29 70.5635 169.505 70.5635C169.064 70.5635 168.71 70.6596 168.439 70.8486C168.172 71.0408 167.959 71.3482 167.805 71.7774C167.65 72.2066 167.551 72.7799 167.502 73.4941C167.454 74.2083 167.431 75.0827 167.431 76.1108H167.438Z" fill="white"/>
<path d="M181.302 61.9769H185.272L182.454 66.0957H179.75L181.302 61.9769ZM179.75 67.9277H183.72V83.3202H179.75V67.9277Z" fill="white"/>
<path d="M187.918 72.6486V72.277C187.918 71.3995 188.063 70.6564 188.35 70.0447C188.636 69.433 189.026 68.9429 189.515 68.5714C190.004 68.1999 190.581 67.9341 191.241 67.7707C191.904 67.6074 192.606 67.5273 193.356 67.5273C194.525 67.5273 195.481 67.6426 196.218 67.87C196.956 68.0974 197.526 68.4241 197.931 68.8437C198.334 69.2632 198.607 69.7629 198.752 70.3458C198.897 70.9287 198.968 71.5628 198.968 72.2482V80.3448C198.968 81.0687 199 81.6323 199.068 82.0327C199.135 82.433 199.264 82.8622 199.457 83.3202H195.661C195.526 83.0736 195.426 82.811 195.359 82.5323C195.291 82.2569 195.23 81.9846 195.172 81.7156H195.114C194.654 82.5163 194.122 83.0512 193.517 83.317C192.912 83.5828 192.133 83.7174 191.173 83.7174C190.484 83.7174 189.898 83.5828 189.418 83.317C188.939 83.0512 188.556 82.7053 188.269 82.2857C187.982 81.8661 187.77 81.3953 187.635 80.8701C187.5 80.3448 187.432 79.826 187.432 79.3103C187.432 78.5865 187.509 77.962 187.661 77.4367C187.815 76.9114 188.05 76.4631 188.366 76.0915C188.681 75.72 189.084 75.4093 189.573 75.1627C190.062 74.9161 190.652 74.6951 191.341 74.5062L193.585 73.904C194.18 73.7503 194.592 73.5421 194.821 73.2763C195.05 73.0105 195.166 72.6197 195.166 72.1041C195.166 71.5116 195.027 71.0504 194.747 70.7173C194.47 70.3842 193.994 70.2176 193.324 70.2176C192.709 70.2176 192.249 70.4002 191.943 70.7621C191.637 71.124 191.482 71.6109 191.482 72.2226V72.6518H187.915L187.918 72.6486ZM195.166 75.6239C194.898 75.8353 194.609 76.0019 194.303 76.1236C193.997 76.2485 193.717 76.3382 193.469 76.3958C192.664 76.5688 192.088 76.8538 191.743 77.2541C191.399 77.6545 191.225 78.199 191.225 78.8844C191.225 79.4769 191.341 79.9829 191.569 80.3993C191.798 80.8188 192.184 81.0302 192.719 81.0302C192.986 81.0302 193.266 80.9886 193.552 80.9021C193.839 80.8156 194.103 80.6779 194.345 80.4857C194.583 80.2968 194.779 80.0534 194.934 79.7555C195.088 79.4609 195.162 79.0925 195.162 78.6538V75.6207L195.166 75.6239Z" fill="white"/>
<path d="M83.0541 37.2675H90.3015C91.3543 37.2675 92.243 37.4437 92.961 37.796C93.6789 38.1483 94.2585 38.6127 94.6996 39.1828C95.1407 39.7561 95.4562 40.4094 95.6494 41.1429C95.8393 41.8763 95.9359 42.6258 95.9359 43.388C95.9359 44.4577 95.7781 45.3769 95.4626 46.1488C95.1471 46.9207 94.706 47.5548 94.1393 48.0513C93.5727 48.5477 92.8869 48.9192 92.082 49.1658C91.2771 49.4124 90.3852 49.5374 89.4065 49.5374H87.1913V57.6916H83.0509V37.2643L83.0541 37.2675ZM87.1978 46.5075H89.0394C89.8636 46.5075 90.5301 46.2609 91.0388 45.7645C91.5475 45.2681 91.8019 44.4962 91.8019 43.4457C91.8019 42.3952 91.5797 41.6329 91.1386 41.098C90.6975 40.5632 89.9602 40.2973 88.9235 40.2973H87.1978V46.5075Z" fill="white"/>
<path d="M102.008 50.6007V51.8306C102.008 52.2886 102.04 52.7305 102.108 53.1597C102.176 53.5889 102.285 53.97 102.44 54.3031C102.594 54.6362 102.794 54.9052 103.045 55.1038C103.293 55.3056 103.602 55.4049 103.966 55.4049C104.635 55.4049 105.125 55.1678 105.434 54.6906C105.74 54.2134 105.952 53.4896 106.068 52.5159H109.636C109.558 54.3095 109.079 55.6867 108.196 56.6507C107.314 57.6148 105.923 58.0952 104.027 58.0952C102.588 58.0952 101.467 57.8486 100.662 57.3521C99.8574 56.8557 99.2618 56.212 98.8787 55.4209C98.4955 54.6298 98.2605 53.7426 98.1736 52.7594C98.0866 51.7761 98.0448 50.8089 98.0448 49.8544C98.0448 48.8231 98.1156 47.8335 98.2605 46.8791C98.4054 45.9246 98.6919 45.0759 99.1234 44.3329C99.5548 43.5898 100.173 42.9973 100.978 42.5585C101.783 42.1197 102.858 41.9019 104.198 41.9019C105.347 41.9019 106.294 42.0877 107.031 42.4592C107.768 42.8308 108.348 43.356 108.769 44.0318C109.191 44.7108 109.478 45.5307 109.632 46.4915C109.787 47.4556 109.861 48.5285 109.861 49.7103V50.5975H102.008V50.6007ZM106.065 48.2531C106.046 47.6605 106.007 47.1417 105.949 46.6933C105.891 46.2449 105.791 45.8638 105.646 45.5499C105.502 45.236 105.302 44.9958 105.041 44.8357C104.784 44.6723 104.452 44.5923 104.049 44.5923C103.647 44.5923 103.315 44.682 103.058 44.8645C102.8 45.0471 102.594 45.2841 102.44 45.5787C102.285 45.8734 102.176 46.2033 102.108 46.5652C102.04 46.9271 102.008 47.289 102.008 47.6509V48.2531H106.065Z" fill="white"/>
<path d="M114.233 37.8953H118.203V42.3023H120.505V44.9926H118.203V53.3198C118.203 53.9316 118.293 54.3639 118.477 54.6202C118.66 54.8764 119.037 55.0077 119.613 55.0077C119.768 55.0077 119.919 55.0045 120.074 54.9949C120.228 54.9853 120.37 54.9725 120.505 54.9532V57.7012C120.064 57.7397 119.636 57.7781 119.224 57.8165C118.812 57.855 118.374 57.8742 117.916 57.8742C117.131 57.8742 116.497 57.8069 116.017 57.6724C115.537 57.5379 115.167 57.3137 114.909 56.9998C114.652 56.6859 114.471 56.2696 114.378 55.7539C114.281 55.2383 114.233 54.5913 114.233 53.8099V44.999H112.221V42.3087H114.233V37.9017V37.8953Z" fill="white"/>
<path d="M123.322 42.3023H127.118V44.3617H127.176C127.579 43.6186 128.068 43.0229 128.644 42.5745C129.221 42.1261 129.919 41.9019 130.744 41.9019C130.859 41.9019 130.979 41.9084 131.104 41.9148C131.23 41.9244 131.349 41.9404 131.465 41.9564V45.7325C131.252 45.7132 131.046 45.7004 130.847 45.6908C130.644 45.6812 130.438 45.678 130.228 45.678C129.884 45.678 129.539 45.7261 129.192 45.8221C128.847 45.9182 128.528 46.0752 128.242 46.293C127.955 46.5139 127.724 46.799 127.553 47.1513C127.379 47.5036 127.295 47.9392 127.295 48.4516V57.6916H123.325V42.2991L123.322 42.3023Z" fill="white"/>
<path d="M133.818 49.9986C133.818 48.6822 133.925 47.5196 134.134 46.5075C134.343 45.4955 134.691 44.6531 135.171 43.9741C135.65 43.2984 136.278 42.7827 137.054 42.4304C137.83 42.0781 138.783 41.9019 139.916 41.9019C141.104 41.8827 142.093 42.0397 142.878 42.3728C143.664 42.7058 144.289 43.2183 144.749 43.9037C145.209 44.5891 145.535 45.4442 145.728 46.4659C145.921 47.4876 146.014 48.663 146.014 49.9986C146.014 51.3341 145.908 52.4775 145.699 53.4896C145.486 54.5017 145.142 55.344 144.662 56.023C144.182 56.6988 143.555 57.2144 142.779 57.5667C142.003 57.919 141.046 58.0952 139.916 58.0952C138.728 58.1144 137.74 57.9575 136.954 57.6244C136.169 57.2913 135.544 56.7788 135.084 56.0934C134.623 55.408 134.298 54.5593 134.105 53.5472C133.912 52.5352 133.818 51.3533 133.818 49.9986ZM137.788 49.9986C137.788 50.78 137.807 51.5071 137.846 52.1732C137.885 52.8426 137.975 53.4127 138.12 53.8899C138.265 54.3671 138.474 54.7387 138.754 55.0045C139.031 55.2703 139.421 55.4048 139.92 55.4048C140.724 55.4048 141.281 54.9853 141.587 54.1462C141.893 53.307 142.048 51.9234 142.048 49.9986C142.048 48.0737 141.893 46.6901 141.587 45.851C141.281 45.0118 140.724 44.5923 139.92 44.5923C139.421 44.5923 139.031 44.7268 138.754 44.9926C138.477 45.2585 138.265 45.6332 138.12 46.1072C137.975 46.5844 137.885 47.1577 137.846 47.8239C137.807 48.4933 137.788 49.2171 137.788 49.9986ZM140.061 36.3515H144.031L141.214 40.4703H138.509L140.061 36.3515Z" fill="white"/>
<path d="M149.723 37.2675H153.693V57.6948H149.723V37.2675Z" fill="white"/>
<path d="M161.314 50.6007V51.8306C161.314 52.2886 161.346 52.7305 161.414 53.1597C161.482 53.5889 161.591 53.97 161.746 54.3031C161.9 54.6362 162.1 54.9052 162.351 55.1038C162.599 55.3056 162.908 55.4049 163.272 55.4049C163.941 55.4049 164.431 55.1678 164.74 54.6906C165.046 54.2134 165.258 53.4896 165.374 52.5159H168.941C168.864 54.3095 168.384 55.6867 167.502 56.6507C166.62 57.6148 165.229 58.0952 163.333 58.0952C161.894 58.0952 160.773 57.8486 159.968 57.3521C159.163 56.8557 158.568 56.212 158.185 55.4209C157.801 54.6298 157.566 53.7426 157.479 52.7594C157.393 51.7761 157.351 50.8089 157.351 49.8544C157.351 48.8231 157.422 47.8335 157.566 46.8791C157.711 45.9246 157.998 45.0759 158.429 44.3329C158.861 43.5898 159.479 42.9973 160.284 42.5585C161.089 42.1197 162.164 41.9019 163.503 41.9019C164.653 41.9019 165.599 42.0877 166.337 42.4592C167.074 42.8308 167.654 43.356 168.075 44.0318C168.497 44.7108 168.784 45.5307 168.938 46.4915C169.093 47.4556 169.167 48.5285 169.167 49.7103V50.5975H161.314V50.6007ZM165.371 48.2531C165.352 47.6605 165.313 47.1417 165.255 46.6933C165.197 46.2449 165.097 45.8638 164.952 45.5499C164.807 45.236 164.608 44.9958 164.347 44.8357C164.089 44.6723 163.758 44.5923 163.355 44.5923C162.953 44.5923 162.621 44.682 162.364 44.8645C162.106 45.0471 161.9 45.2841 161.746 45.5787C161.591 45.8734 161.482 46.2033 161.414 46.5652C161.346 46.9271 161.314 47.289 161.314 47.6509V48.2531H165.371Z" fill="white"/>
<path d="M172.158 49.9985C172.158 48.6822 172.264 47.5196 172.473 46.5075C172.683 45.4954 173.03 44.6531 173.51 43.9741C173.99 43.2983 174.618 42.7827 175.394 42.4304C176.17 42.0781 177.123 41.9019 178.256 41.9019C179.444 41.8827 180.432 42.0397 181.218 42.3727C182.004 42.7058 182.628 43.2183 183.089 43.9037C183.549 44.5891 183.874 45.4442 184.067 46.4659C184.261 47.4876 184.354 48.663 184.354 49.9985C184.354 51.3341 184.248 52.4775 184.038 53.4896C183.826 54.5016 183.481 55.344 183.002 56.023C182.522 56.6988 181.894 57.2144 181.118 57.5667C180.342 57.919 179.386 58.0952 178.256 58.0952C177.068 58.1144 176.079 57.9574 175.294 57.6244C174.508 57.2913 173.884 56.7788 173.423 56.0934C172.963 55.408 172.638 54.5593 172.444 53.5472C172.251 52.5351 172.158 51.3533 172.158 49.9985ZM176.128 49.9985C176.128 50.78 176.147 51.5071 176.186 52.1732C176.224 52.8426 176.314 53.4127 176.459 53.8899C176.604 54.3671 176.813 54.7387 177.094 55.0045C177.37 55.2703 177.76 55.4048 178.259 55.4048C179.064 55.4048 179.621 54.9853 179.927 54.1461C180.233 53.307 180.387 51.9234 180.387 49.9985C180.387 48.0737 180.233 46.6901 179.927 45.851C179.621 45.0118 179.064 44.5923 178.259 44.5923C177.76 44.5923 177.37 44.7268 177.094 44.9926C176.817 45.2584 176.604 45.6332 176.459 46.1072C176.314 46.5844 176.224 47.1577 176.186 47.8239C176.147 48.4932 176.128 49.2171 176.128 49.9985Z" fill="white"/>
<path d="M191.946 53.2302V56.9486C191.946 57.7108 191.894 58.4123 191.788 59.0528C191.682 59.6902 191.485 60.2442 191.199 60.7118C190.912 61.1794 190.523 61.5606 190.033 61.8552C189.544 62.1499 188.916 62.3357 188.15 62.4125V60.4108C188.649 60.3147 189.022 60.0489 189.27 59.6101C189.518 59.1713 189.644 58.6845 189.644 58.1496V57.6916H188.147V53.227H191.943L191.946 53.2302Z" fill="white"/>
<path d="M212.771 43.3304C212.771 42.9685 212.729 42.5809 212.642 42.171C212.555 41.761 212.416 41.3895 212.223 41.0564C212.03 40.7233 211.785 40.4479 211.489 40.2269C211.193 40.0091 210.832 39.897 210.411 39.897C209.413 39.897 208.695 40.4511 208.253 41.556C207.812 42.661 207.593 44.493 207.593 47.0488C207.593 48.2883 207.632 49.3996 207.709 50.3829C207.787 51.3661 207.925 52.2053 208.128 52.9003C208.331 53.5985 208.617 54.1301 208.991 54.5017C209.364 54.8732 209.847 55.059 210.443 55.059C210.691 55.059 210.964 54.9917 211.264 54.8572C211.56 54.7227 211.84 54.5241 212.098 54.2551C212.355 53.9892 212.571 53.6497 212.745 53.2398C212.919 52.8298 213.002 52.3494 213.002 51.7953V49.7071H210.269V46.6741H216.969V57.6884H213.92V55.7988H213.862C213.363 56.5995 212.764 57.1824 212.066 57.5443C211.367 57.9062 210.527 58.0888 209.548 58.0888C208.282 58.0888 207.252 57.855 206.457 57.3874C205.662 56.9198 205.037 56.228 204.586 55.312C204.136 54.396 203.833 53.2654 203.682 51.9202C203.527 50.5751 203.453 49.0153 203.453 47.241C203.453 45.4666 203.562 44.019 203.785 42.7219C204.004 41.4247 204.383 40.3422 204.921 39.4742C205.459 38.6063 206.167 37.9529 207.049 37.5141C207.931 37.0754 209.033 36.8576 210.356 36.8576C212.619 36.8576 214.248 37.4149 215.247 38.5326C216.245 39.6472 216.744 41.2454 216.744 43.324H212.774L212.771 43.3304Z" fill="white"/>
<path d="M220.939 47.0232V46.6517C220.939 45.7741 221.084 45.0311 221.37 44.4193C221.657 43.8076 222.046 43.3176 222.536 42.9461C223.025 42.5745 223.601 42.3087 224.261 42.1454C224.925 41.982 225.627 41.9019 226.377 41.9019C227.546 41.9019 228.502 42.0172 229.239 42.2446C229.976 42.472 230.546 42.7987 230.952 43.2183C231.354 43.6379 231.628 44.1375 231.773 44.7204C231.918 45.3033 231.989 45.9374 231.989 46.6228V54.7195C231.989 55.4433 232.021 56.007 232.088 56.4073C232.156 56.8077 232.285 57.2368 232.478 57.6948H228.682C228.547 57.4482 228.447 57.1856 228.379 56.9069C228.312 56.6315 228.251 56.3593 228.193 56.0902H228.135C227.674 56.8909 227.143 57.4258 226.538 57.6916C225.932 57.9575 225.153 58.092 224.194 58.092C223.505 58.092 222.919 57.9575 222.439 57.6916C221.959 57.4258 221.576 57.0799 221.29 56.6603C221.003 56.2408 220.791 55.77 220.656 55.2447C220.52 54.7195 220.453 54.2006 220.453 53.685C220.453 52.9611 220.53 52.3366 220.681 51.8113C220.836 51.2861 221.071 50.8377 221.386 50.4662C221.702 50.0946 222.104 49.784 222.594 49.5374C223.083 49.2907 223.672 49.0698 224.361 48.8808L226.605 48.2787C227.201 48.1249 227.613 47.9168 227.842 47.6509C228.07 47.3851 228.186 46.9944 228.186 46.4787C228.186 45.8862 228.048 45.425 227.768 45.0919C227.491 44.7588 227.014 44.5923 226.345 44.5923C225.73 44.5923 225.269 44.7748 224.963 45.1367C224.658 45.4987 224.503 45.9855 224.503 46.5972V47.0264H220.936L220.939 47.0232ZM228.186 49.9986C227.919 50.2099 227.629 50.3765 227.323 50.4982C227.018 50.6231 226.737 50.7128 226.49 50.7704C225.685 50.9434 225.108 51.2284 224.764 51.6288C224.419 52.0291 224.245 52.5736 224.245 53.259C224.245 53.8515 224.361 54.3575 224.59 54.7739C224.819 55.1935 225.205 55.4049 225.739 55.4049C226.007 55.4049 226.287 55.3632 226.573 55.2767C226.86 55.1903 227.124 55.0525 227.365 54.8604C227.603 54.6714 227.8 54.428 227.954 54.1301C228.109 53.8355 228.183 53.4672 228.183 53.0284V49.9954L228.186 49.9986Z" fill="white"/>
<path d="M239.146 52.6601V53.1757C239.146 53.8451 239.323 54.3832 239.677 54.7931C240.031 55.2031 240.543 55.4081 241.216 55.4081C241.828 55.4081 242.317 55.2543 242.684 54.9501C243.048 54.6458 243.232 54.1878 243.232 53.5761C243.232 53.0796 243.087 52.7049 242.8 52.4455C242.514 52.1893 242.176 51.9843 241.792 51.8306L239.001 50.8281C237.91 50.447 237.082 49.9089 236.528 49.2107C235.971 48.5157 235.694 47.6221 235.694 46.5364C235.694 45.9054 235.801 45.3097 236.01 44.7492C236.219 44.1855 236.557 43.6955 237.018 43.2759C237.478 42.8564 238.067 42.5233 238.785 42.2735C239.503 42.0269 240.373 41.9019 241.387 41.9019C243.19 41.9019 244.523 42.2831 245.386 43.0453C246.248 43.8076 246.68 44.8869 246.68 46.2769V46.9047H243.113C243.113 46.104 242.984 45.5179 242.723 45.1464C242.465 44.7748 242.008 44.5891 241.358 44.5891C240.859 44.5891 240.424 44.7268 240.051 45.0054C239.677 45.2809 239.49 45.6972 239.49 46.2513C239.49 46.6324 239.61 46.9751 239.851 47.2826C240.089 47.5869 240.546 47.8463 241.216 48.0545L243.602 48.8552C244.848 49.2747 245.73 49.8224 246.248 50.5014C246.767 51.1804 247.024 52.0996 247.024 53.2622C247.024 54.0629 246.88 54.7707 246.593 55.3792C246.306 55.991 245.907 56.4938 245.398 56.8941C244.89 57.2945 244.281 57.5956 243.573 57.7941C242.865 57.9959 242.095 58.0952 241.271 58.0952C240.141 58.0952 239.21 57.9799 238.479 57.7525C237.752 57.5251 237.172 57.1952 236.741 56.766C236.309 56.3369 236.007 55.8212 235.836 55.2223C235.662 54.6202 235.579 53.9476 235.579 53.2045V52.6601H239.146Z" fill="white"/>
<path d="M96.2933 11.5812H98.0577V32.4569H96.2933V11.5812Z" fill="white"/>
<path d="M100.978 11.5812H102.742V32.4569H100.978V11.5812Z" fill="white"/>
<path d="M7.45349 36.88C7.45349 36.88 11.3879 26.045 37.5958 0.441986C37.5958 0.441986 25.6574 14.7744 29.7045 25.6478C33.7516 36.518 39.0093 41.0468 39.0093 41.0468C39.0093 41.0468 20.7088 50.1458 27.7308 71.582C33.6936 89.7834 -10.0582 75.3197 7.45027 36.88H7.45349Z" fill="url(#paint0_linear_5_975)"/>
<mask id="mask0_5_975" style="mask-type:luminance" maskUnits="userSpaceOnUse" x="2" y="0" width="38" height="77">
<path d="M7.45349 36.88C7.45349 36.88 11.3879 26.045 37.5959 0.441986C37.5959 0.441986 25.6574 14.7744 29.7045 25.6478C33.7516 36.5181 39.0093 41.0468 39.0093 41.0468C39.0093 41.0468 24.8106 44.983 26.1017 66.6882C27.2382 85.7992 -10.0582 75.3197 7.45027 36.8832L7.45349 36.88Z" fill="white"/>
</mask>
<g mask="url(#mask0_5_975)">
<g style="mix-blend-mode:soft-light">
<path d="M26.5846 59.8631C26.5846 59.8631 7.97829 41.4567 11.9771 27.9058C11.9771 27.9058 2.68519 35.9672 11.8644 51.965C30.3001 84.0985 26.5879 59.8631 26.5879 59.8631H26.5846Z" fill="#2B2C29"/>
</g>
</g>
<path d="M67.7511 73.1674C67.9861 72.4116 68.1825 71.6461 68.3821 70.8774L68.6558 69.7212C68.7492 69.3369 68.8168 68.9429 68.8973 68.5554L69.0132 67.9725L69.1098 67.3832C69.171 66.9893 69.2515 66.6017 69.2965 66.2078L69.4511 65.026C69.4962 64.632 69.5251 64.2349 69.5638 63.8377C69.5799 63.6392 69.6024 63.4406 69.6153 63.242L69.6442 62.6463L69.6732 62.0506L69.6861 61.7527V61.4549L69.6958 60.2634C69.6925 59.8663 69.6668 59.4691 69.6539 59.072C69.6442 58.8734 69.641 58.6749 69.6282 58.4763L69.5766 57.8838L69.5251 57.2913C69.5058 57.0927 69.4929 56.8941 69.4607 56.6987L69.2933 55.5233C69.2708 55.3279 69.2289 55.1326 69.1903 54.9404L69.0744 54.3607L68.9585 53.781C68.9198 53.5856 68.8619 53.3999 68.8136 53.2077L68.5142 52.0675V52.0483L68.5077 52.0355C68.3821 51.411 68.189 50.7672 67.9958 50.1395L67.6803 49.2042L67.3325 48.2818C66.8496 47.0616 66.3216 45.8573 65.7292 44.6947C65.4329 44.1118 65.1432 43.5257 64.818 42.9652C64.4993 42.3983 64.1934 41.8218 63.8457 41.2774L63.337 40.4479C63.1695 40.1692 63.0021 39.8906 62.8218 39.6247L61.7497 38.0105C61.3794 37.4821 60.9963 36.9696 60.6196 36.4476C60.4296 36.1882 60.2461 35.9223 60.0465 35.6725L59.4508 34.9199C59.0516 34.4202 58.662 33.911 58.2499 33.421L57.0007 31.9765L56.3761 31.2559L55.7193 30.5609L54.4089 29.1709L51.7494 26.4389C50.864 25.5229 49.9786 24.6101 49.1093 23.6749C48.2368 22.7429 47.3707 21.8045 46.5207 20.8469C45.6675 19.8924 44.8304 18.922 44.0094 17.9291C43.1884 16.9363 42.3931 15.921 41.6365 14.8641C40.8799 13.8072 40.1587 12.7182 39.5244 11.5652C38.8869 10.4122 38.3267 9.20158 37.921 7.92367C37.5121 6.64576 37.29 5.29099 37.2996 3.93621C37.3222 2.57824 37.612 1.24268 38.0852 0.00320435C37.6442 1.25869 37.3962 2.59425 37.4027 3.93621C37.4188 5.27818 37.6635 6.60733 38.0917 7.85641C38.5199 9.1087 39.093 10.2905 39.7434 11.4147C40.397 12.5357 41.1182 13.6118 41.8812 14.6463C42.6443 15.684 43.446 16.6833 44.2734 17.6569C45.1009 18.6305 45.9444 19.5882 46.8073 20.5266C47.6669 21.4682 48.5394 22.3906 49.4216 23.3066L52.0746 26.045L54.7502 28.7673L56.067 30.1509L56.7238 30.8427L57.3581 31.5666L58.6266 33.0206C59.0419 33.5138 59.438 34.0263 59.8436 34.5259L60.4489 35.2818C60.6486 35.5348 60.8353 35.8038 61.0285 36.0633C61.4116 36.5885 61.8012 37.1074 62.1747 37.6358L63.2661 39.2596C63.4529 39.5287 63.6203 39.8105 63.7909 40.0891L64.3029 40.9283C64.6538 41.4823 64.9597 42.0653 65.2816 42.6418C65.61 43.2118 65.903 43.8076 66.1992 44.3969C66.7949 45.5787 67.3261 46.799 67.8123 48.0448L68.16 48.9865L68.4787 49.9441C68.6751 50.5942 68.8683 51.2284 69.0035 51.9202L68.9971 51.8882L69.2965 53.0572C69.3448 53.2526 69.4028 53.4447 69.4414 53.6433L69.5573 54.2358L69.6732 54.8283C69.7119 55.0269 69.7537 55.2223 69.7763 55.424L69.9437 56.6251C69.9759 56.8236 69.9888 57.0254 70.0081 57.2272L70.0596 57.8325L70.1111 58.4378C70.124 58.6396 70.1272 58.8414 70.1336 59.0432C70.1465 59.4467 70.1691 59.8503 70.1691 60.2538L70.153 61.4677L70.1465 61.7719L70.1272 62.073L70.0918 62.6783L70.0564 63.2836C70.0435 63.4854 70.0177 63.684 69.9984 63.8858C69.9566 64.2861 69.9211 64.6897 69.8696 65.0868L69.699 66.2814C69.6475 66.6818 69.5638 67.0725 69.4962 67.4697L69.3899 68.0622L69.2643 68.6515C69.1774 69.0422 69.1034 69.4362 69.0068 69.8237L68.717 70.9863C68.5045 71.755 68.2984 72.5269 68.0537 73.2827C67.9378 73.6638 67.7608 74.1378 67.545 74.6567C65.7131 78.5769 63.2597 82.1352 62.0845 83.3458L67.7479 73.1674H67.7511Z" fill="#FFED00"/>
<path d="M10.158 31.9829C2.27308 43.5898 -0.396013 53.291 0.0450785 61.6406C0.499049 66.6049 1.84486 71.3707 3.93763 75.6912C5.12247 78.0228 6.51335 80.2359 8.03303 82.353C14.3178 90.5745 23.8125 96.0032 35.0491 96.0032C38.5778 96.0032 41.9842 95.4651 45.1942 94.4819C43.0467 70.57 1.93179 50.338 10.158 31.9829Z" fill="url(#paint1_linear_5_975)"/>
<path d="M14.8265 50.9818C15.5767 52.0803 16.4267 53.1276 17.3056 54.2038C19.07 56.34 20.9889 58.5307 23.0076 60.7534C25.0296 62.9762 27.1256 65.2565 29.302 67.5401C30.3871 68.6611 31.4463 69.8461 32.4798 71.06C33.5133 72.2738 34.5211 73.5261 35.4934 74.8136C37.4445 77.3727 39.2636 80.0694 40.8155 82.8846C42.3642 85.6967 43.6681 88.64 44.4086 91.6666C44.4537 91.8556 44.5117 92.0414 44.5471 92.2335C44.5857 92.4225 44.6244 92.6147 44.6598 92.8036C44.6984 92.9926 44.7338 93.1816 44.7725 93.3705C44.7982 93.5595 44.824 93.7484 44.853 93.9374C44.8787 94.1264 44.9045 94.3121 44.9334 94.5011C44.9367 94.5203 44.9367 94.5427 44.9399 94.5652C45.0268 94.5395 45.8993 94.1776 45.9863 94.152C42.2772 70.4739 2.92345 50.8248 9.88755 32.6459C9.89077 32.6363 9.89721 32.6203 9.90043 32.6107C9.95838 32.4729 10.0035 32.3576 10.0421 32.2648C10.1194 32.079 10.158 31.9829 10.158 31.9829C10.158 31.9829 10.1161 32.079 10.0357 32.2616C9.9938 32.3544 9.9455 32.4665 9.88433 32.6042C9.82638 32.7388 9.77164 32.9053 9.70081 33.0879C9.66861 33.1807 9.62998 33.2768 9.59456 33.3793C9.56236 33.485 9.53017 33.5939 9.49475 33.7092C9.45934 33.8245 9.4207 33.9462 9.3885 34.0711C9.35953 34.1992 9.32733 34.3337 9.29191 34.4715C9.21786 34.7469 9.17923 35.0544 9.11805 35.3779C9.08264 35.7045 9.03112 36.0536 9.01824 36.4252C8.97639 37.1682 8.99893 37.9945 9.12127 38.8817C9.2404 39.7689 9.45612 40.7137 9.77164 41.6873C10.0839 42.6642 10.5057 43.6634 11.0048 44.6851C11.507 45.7036 12.0962 46.7317 12.7466 47.7758C13.4002 48.8199 14.0924 49.88 14.8297 50.9786L14.8265 50.9818Z" fill="#BD4C22"/>
<path d="M64.1515 41.2389C53.8003 24.056 33.4071 13.8392 38.082 0C27.0225 9.96704 23.8447 18.9989 25.0521 27.3357C28.2621 49.4541 62.3678 66.6562 62.0877 83.3426C64.2932 80.6843 66.1155 77.6929 67.4678 74.4549C72.1105 60.6189 69.4414 50.0209 64.1515 41.2389Z" fill="url(#paint2_linear_5_975)"/>
<mask id="mask1_5_975" style="mask-type:luminance" maskUnits="userSpaceOnUse" x="-1" y="31" width="47" height="66">
<path d="M10.158 31.9829C2.27308 43.5898 -0.396013 53.291 0.0450785 61.6406C0.499049 66.6049 1.84486 71.3707 3.93763 75.6912C5.12247 78.0228 6.51335 80.2359 8.03303 82.353C14.3178 90.5745 23.8125 96.0032 35.0491 96.0032C38.5778 96.0032 41.9842 95.4651 45.1942 94.4819C43.0467 70.57 1.93179 50.338 10.158 31.9829Z" fill="white"/>
</mask>
<g mask="url(#mask1_5_975)">
<path d="M31.0278 103.815C31.0278 103.815 42.464 103.155 32.7213 87.6439C22.9786 72.1329 9.0118 67.1846 6.6518 55.7667C4.2918 44.3488 -18.7609 61.0609 10.3415 87.3909C30.9569 106.041 31.031 103.818 31.031 103.818L31.0278 103.815Z" fill="url(#paint3_linear_5_975)"/>
</g>
<mask id="mask2_5_975" style="mask-type:luminance" maskUnits="userSpaceOnUse" x="24" y="0" width="46" height="84">
<path d="M64.1515 41.2389C53.8003 24.056 33.4071 13.8392 38.082 0C27.0225 9.96704 23.8447 18.9989 25.0521 27.3357C28.2621 49.4541 62.3678 66.6562 62.0877 83.3426C64.2932 80.6843 66.1155 77.6929 67.4678 74.4549C72.1105 60.6189 69.4414 50.0209 64.1515 41.2389Z" fill="white"/>
</mask>
<g mask="url(#mask2_5_975)">
<path d="M60.2654 87.5895C60.2654 87.5895 68.5141 71.5212 58.7715 56.0101C49.0288 40.4991 37.6087 35.048 35.2487 23.6269C32.8887 12.209 12.4955 26.8425 40.3486 54.476C62.7639 76.7129 60.2654 87.5895 60.2654 87.5895Z" fill="url(#paint4_linear_5_975)"/>
</g>
</g>
<defs>
<linearGradient id="paint0_linear_5_975" x1="21.1499" y1="79.3872" x2="21.1499" y2="0.441986" gradientUnits="userSpaceOnUse">
<stop stop-color="#007E9F"/>
<stop offset="0.03" stop-color="#0986A6"/>
<stop offset="0.13" stop-color="#209AB8"/>
<stop offset="0.23" stop-color="#31A8C5"/>
<stop offset="0.35" stop-color="#3AB1CD"/>
<stop offset="0.5" stop-color="#3EB4D0"/>
<stop offset="0.82" stop-color="#6AC0E4"/>
<stop offset="1" stop-color="#68BDCE"/>
</linearGradient>
<linearGradient id="paint1_linear_5_975" x1="37.1934" y1="95.4267" x2="-0.183634" y2="43.9952" gradientUnits="userSpaceOnUse">
<stop stop-color="#F7BB0C"/>
<stop offset="0.1" stop-color="#F4B118"/>
<stop offset="0.25" stop-color="#F1A627"/>
<stop offset="0.35" stop-color="#EE9824"/>
<stop offset="0.61" stop-color="#E97B1F"/>
<stop offset="0.83" stop-color="#E76A1D"/>
<stop offset="1" stop-color="#E6641C"/>
</linearGradient>
<linearGradient id="paint2_linear_5_975" x1="63.2307" y1="81.754" x2="32.4528" y2="2.61907" gradientUnits="userSpaceOnUse">
<stop stop-color="#99BD11"/>
<stop offset="0.37" stop-color="#7FB41E"/>
<stop offset="0.42" stop-color="#77B220"/>
<stop offset="0.61" stop-color="#63AD28"/>
<stop offset="0.81" stop-color="#57AA2C"/>
<stop offset="1" stop-color="#54A92E"/>
</linearGradient>
<linearGradient id="paint3_linear_5_975" x1="16.2045" y1="103.898" x2="16.2045" y2="52.1188" gradientUnits="userSpaceOnUse">
<stop stop-color="white"/>
<stop offset="0.03" stop-color="white" stop-opacity="0.93"/>
<stop offset="0.1" stop-color="white" stop-opacity="0.74"/>
<stop offset="0.17" stop-color="white" stop-opacity="0.56"/>
<stop offset="0.25" stop-color="white" stop-opacity="0.41"/>
<stop offset="0.34" stop-color="white" stop-opacity="0.28"/>
<stop offset="0.43" stop-color="white" stop-opacity="0.18"/>
<stop offset="0.53" stop-color="white" stop-opacity="0.1"/>
<stop offset="0.64" stop-color="white" stop-opacity="0.04"/>
<stop offset="0.78" stop-color="white" stop-opacity="0"/>
<stop offset="1" stop-color="white" stop-opacity="0"/>
</linearGradient>
<linearGradient id="paint4_linear_5_975" x1="44.6823" y1="87.5895" x2="44.6823" y2="19.7259" gradientUnits="userSpaceOnUse">
<stop stop-color="white"/>
<stop offset="0.03" stop-color="white" stop-opacity="0.93"/>
<stop offset="0.1" stop-color="white" stop-opacity="0.74"/>
<stop offset="0.17" stop-color="white" stop-opacity="0.56"/>
<stop offset="0.25" stop-color="white" stop-opacity="0.41"/>
<stop offset="0.34" stop-color="white" stop-opacity="0.28"/>
<stop offset="0.43" stop-color="white" stop-opacity="0.18"/>
<stop offset="0.53" stop-color="white" stop-opacity="0.1"/>
<stop offset="0.64" stop-color="white" stop-opacity="0.04"/>
<stop offset="0.78" stop-color="white" stop-opacity="0"/>
<stop offset="1" stop-color="white" stop-opacity="0"/>
</linearGradient>
<clipPath id="clip0_5_975">
<rect width="247.024" height="96" fill="white"/>
</clipPath>
</defs>
</svg>
